<svg width="30" height="30" viewBox="0 0 30 30" fill="none" xmlns="http://www.w3.org/2000/svg">
<path id="Vector" d="M3.75 30C2.71875 30 1.83594 29.6328 1.10156 28.8984C0.367188 28.1641 0 27.2812 0 26.25C0 25.2188 0.367188 24.3359 1.10156 23.6016C1.83594 22.8672 2.71875 22.5 3.75 22.5C4.78125 22.5 5.66406 22.8672 6.39844 23.6016C7.13281 24.3359 7.5 25.2188 7.5 26.25C7.5 27.2812 7.13281 28.1641 6.39844 28.8984C5.66406 29.6328 4.78125 30 3.75 30ZM15 30C13.9688 30 13.0859 29.6328 12.3516 28.8984C11.6172 28.1641 11.25 27.2812 11.25 26.25C11.25 25.2188 11.6172 24.3359 12.3516 23.6016C13.0859 22.8672 13.9688 22.5 15 22.5C16.0312 22.5 16.9141 22.8672 17.6484 23.6016C18.3828 24.3359 18.75 25.2188 18.75 26.25C18.75 27.2812 18.3828 28.1641 17.6484 28.8984C16.9141 29.6328 16.0312 30 15 30ZM26.25 30C25.2188 30 24.3359 29.6328 23.6016 28.8984C22.8672 28.1641 22.5 27.2812 22.5 26.25C22.5 25.2188 22.8672 24.3359 23.6016 23.6016C24.3359 22.8672 25.2188 22.5 26.25 22.5C27.2812 22.5 28.1641 22.8672 28.8984 23.6016C29.6328 24.3359 30 25.2188 30 26.25C30 27.2812 29.6328 28.1641 28.8984 28.8984C28.1641 29.6328 27.2812 30 26.25 30ZM3.75 18.75C2.71875 18.75 1.83594 18.3828 1.10156 17.6484C0.367188 16.9141 0 16.0312 0 15C0 13.9688 0.367188 13.0859 1.10156 12.3516C1.83594 11.6172 2.71875 11.25 3.75 11.25C4.78125 11.25 5.66406 11.6172 6.39844 12.3516C7.13281 13.0859 7.5 13.9688 7.5 15C7.5 16.0312 7.13281 16.9141 6.39844 17.6484C5.66406 18.3828 4.78125 18.75 3.75 18.75ZM15 18.75C13.9688 18.75 13.0859 18.3828 12.3516 17.6484C11.6172 16.9141 11.25 16.0312 11.25 15C11.25 13.9688 11.6172 13.0859 12.3516 12.3516C13.0859 11.6172 13.9688 11.25 15 11.25C16.0312 11.25 16.9141 11.6172 17.6484 12.3516C18.3828 13.0859 18.75 13.9688 18.75 15C18.75 16.0312 18.3828 16.9141 17.6484 17.6484C16.9141 18.3828 16.0312 18.75 15 18.75ZM26.25 18.75C25.2188 18.75 24.3359 18.3828 23.6016 17.6484C22.8672 16.9141 22.5 16.0312 22.5 15C22.5 13.9688 22.8672 13.0859 23.6016 12.3516C24.3359 11.6172 25.2188 11.25 26.25 11.25C27.2812 11.25 28.1641 11.6172 28.8984 12.3516C29.6328 13.0859 30 13.9688 30 15C30 16.0312 29.6328 16.9141 28.8984 17.6484C28.1641 18.3828 27.2812 18.75 26.25 18.75ZM3.75 7.5C2.71875 7.5 1.83594 7.13281 1.10156 6.39844C0.367188 5.66406 0 4.78125 0 3.75C0 2.71875 0.367188 1.83594 1.10156 1.10156C1.83594 0.367188 2.71875 0 3.75 0C4.78125 0 5.66406 0.367188 6.39844 1.10156C7.13281 1.83594 7.5 2.71875 7.5 3.75C7.5 4.78125 7.13281 5.66406 6.39844 6.39844C5.66406 7.13281 4.78125 7.5 3.75 7.5ZM15 7.5C13.9688 7.5 13.0859 7.13281 12.3516 6.39844C11.6172 5.66406 11.25 4.78125 11.25 3.75C11.25 2.71875 11.6172 1.83594 12.3516 1.10156C13.0859 0.367188 13.9688 0 15 0C16.0312 0 16.9141 0.367188 17.6484 1.10156C18.3828 1.83594 18.75 2.71875 18.75 3.75C18.75 4.78125 18.3828 5.66406 17.6484 6.39844C16.9141 7.13281 16.0312 7.5 15 7.5ZM26.25 7.5C25.2188 7.5 24.3359 7.13281 23.6016 6.39844C22.8672 5.66406 22.5 4.78125 22.5 3.75C22.5 2.71875 22.8672 1.83594 23.6016 1.10156C24.3359 0.367188 25.2188 0 26.25 0C27.2812 0 28.1641 0.367188 28.8984 1.10156C29.6328 1.83594 30 2.71875 30 3.75C30 4.78125 29.6328 5.66406 28.8984 6.39844C28.1641 7.13281 27.2812 7.5 26.25 7.5Z" fill="white"/>
</svg>
