<svg width="42" height="30" viewBox="0 0 42 30" fill="none" xmlns="http://www.w3.org/2000/svg">
<path id="Vector" d="M6.89063 30C5.01563 30 3.41406 29.3281 2.08594 27.9844C0.757813 26.6406 0.0625 25.0156 0 23.1094C0 22.8281 0.015625 22.5469 0.046875 22.2656C0.078125 21.9844 0.125 21.7031 0.1875 21.4219L4.125 5.67188C4.5625 3.98438 5.45313 2.61719 6.79688 1.57031C8.14063 0.523438 9.67188 0 11.3906 0H29.6719C31.3906 0 32.9219 0.523438 34.2656 1.57031C35.6094 2.61719 36.5 3.98438 36.9375 5.67188L40.875 21.4219C40.9375 21.7031 40.9922 21.9922 41.0391 22.2891C41.0859 22.5859 41.1094 22.875 41.1094 23.1562C41.1094 25.0625 40.4297 26.6797 39.0703 28.0078C37.7109 29.3359 36.0781 30 34.1719 30C32.8594 30 31.6406 29.6562 30.5156 28.9688C29.3906 28.2812 28.5469 27.3438 27.9844 26.1562L26.6719 23.4375C26.5156 23.125 26.2813 22.8906 25.9688 22.7344C25.6563 22.5781 25.3281 22.5 24.9844 22.5H16.0781C15.7344 22.5 15.4063 22.5781 15.0938 22.7344C14.7813 22.8906 14.5469 23.125 14.3906 23.4375L13.0781 26.1562C12.5156 27.3438 11.6719 28.2812 10.5469 28.9688C9.42188 29.6562 8.20313 30 6.89063 30ZM7.03125 26.25C7.625 26.25 8.16406 26.0938 8.64844 25.7812C9.13281 25.4688 9.5 25.0469 9.75 24.5156L11.0625 21.8438C11.5313 20.875 12.2188 20.1172 13.125 19.5703C14.0313 19.0234 15.0156 18.75 16.0781 18.75H24.9844C26.0469 18.75 27.0313 19.0312 27.9375 19.5938C28.8438 20.1562 29.5469 20.9062 30.0469 21.8438L31.3594 24.5156C31.6094 25.0469 31.9766 25.4688 32.4609 25.7812C32.9453 26.0938 33.4844 26.25 34.0781 26.25C34.9531 26.25 35.7031 25.9609 36.3281 25.3828C36.9531 24.8047 37.2813 24.0781 37.3125 23.2031C37.3125 23.2344 37.2813 22.9375 37.2188 22.3125L33.2813 6.60938C33.0625 5.76562 32.625 5.07812 31.9688 4.54688C31.3125 4.01562 30.5469 3.75 29.6719 3.75H11.3906C10.5156 3.75 9.74219 4.01562 9.07031 4.54688C8.39844 5.07812 7.96875 5.76562 7.78125 6.60938L3.84375 22.3125C3.78125 22.5 3.75 22.7812 3.75 23.1562C3.75 24.0312 4.07031 24.7656 4.71094 25.3594C5.35156 25.9531 6.125 26.25 7.03125 26.25ZM23.3438 13.125C23.875 13.125 24.3203 12.9453 24.6797 12.5859C25.0391 12.2266 25.2188 11.7812 25.2188 11.25C25.2188 10.7188 25.0391 10.2734 24.6797 9.91406C24.3203 9.55469 23.875 9.375 23.3438 9.375C22.8125 9.375 22.3672 9.55469 22.0078 9.91406C21.6484 10.2734 21.4688 10.7188 21.4688 11.25C21.4688 11.7812 21.6484 12.2266 22.0078 12.5859C22.3672 12.9453 22.8125 13.125 23.3438 13.125ZM27.0938 9.375C27.625 9.375 28.0703 9.19531 28.4297 8.83594C28.7891 8.47656 28.9688 8.03125 28.9688 7.5C28.9688 6.96875 28.7891 6.52344 28.4297 6.16406C28.0703 5.80469 27.625 5.625 27.0938 5.625C26.5625 5.625 26.1172 5.80469 25.7578 6.16406C25.3984 6.52344 25.2188 6.96875 25.2188 7.5C25.2188 8.03125 25.3984 8.47656 25.7578 8.83594C26.1172 9.19531 26.5625 9.375 27.0938 9.375ZM27.0938 16.875C27.625 16.875 28.0703 16.6953 28.4297 16.3359C28.7891 15.9766 28.9688 15.5312 28.9688 15C28.9688 14.4688 28.7891 14.0234 28.4297 13.6641C28.0703 13.3047 27.625 13.125 27.0938 13.125C26.5625 13.125 26.1172 13.3047 25.7578 13.6641C25.3984 14.0234 25.2188 14.4688 25.2188 15C25.2188 15.5312 25.3984 15.9766 25.7578 16.3359C26.1172 16.6953 26.5625 16.875 27.0938 16.875ZM30.8438 13.125C31.375 13.125 31.8203 12.9453 32.1797 12.5859C32.5391 12.2266 32.7188 11.7812 32.7188 11.25C32.7188 10.7188 32.5391 10.2734 32.1797 9.91406C31.8203 9.55469 31.375 9.375 30.8438 9.375C30.3125 9.375 29.8672 9.55469 29.5078 9.91406C29.1484 10.2734 28.9688 10.7188 28.9688 11.25C28.9688 11.7812 29.1484 12.2266 29.5078 12.5859C29.8672 12.9453 30.3125 13.125 30.8438 13.125ZM13.9688 15.9375C14.375 15.9375 14.7109 15.8047 14.9766 15.5391C15.2422 15.2734 15.375 14.9375 15.375 14.5312V12.6562H17.25C17.6563 12.6562 17.9922 12.5234 18.2578 12.2578C18.5234 11.9922 18.6563 11.6562 18.6563 11.25C18.6563 10.8438 18.5234 10.5078 18.2578 10.2422C17.9922 9.97656 17.6563 9.84375 17.25 9.84375H15.375V7.96875C15.375 7.5625 15.2422 7.22656 14.9766 6.96094C14.7109 6.69531 14.375 6.5625 13.9688 6.5625C13.5625 6.5625 13.2266 6.69531 12.9609 6.96094C12.6953 7.22656 12.5625 7.5625 12.5625 7.96875V9.84375H10.6875C10.2813 9.84375 9.94531 9.97656 9.67969 10.2422C9.41406 10.5078 9.28125 10.8438 9.28125 11.25C9.28125 11.6562 9.41406 11.9922 9.67969 12.2578C9.94531 12.5234 10.2813 12.6562 10.6875 12.6562H12.5625V14.5312C12.5625 14.9375 12.6953 15.2734 12.9609 15.5391C13.2266 15.8047 13.5625 15.9375 13.9688 15.9375Z" fill="white"/>
</svg>
