<svg width="36" height="38" viewBox="0 0 36 38" fill="none" xmlns="http://www.w3.org/2000/svg">
<path id="Vector" d="M6.5625 16.875L16.875 0L27.1875 16.875H6.5625ZM27.1875 37.5C24.8438 37.5 22.8516 36.6797 21.2109 35.0391C19.5703 33.3984 18.75 31.4062 18.75 29.0625C18.75 26.7188 19.5703 24.7266 21.2109 23.0859C22.8516 21.4453 24.8438 20.625 27.1875 20.625C29.5312 20.625 31.5234 21.4453 33.1641 23.0859C34.8047 24.7266 35.625 26.7188 35.625 29.0625C35.625 31.4062 34.8047 33.3984 33.1641 35.0391C31.5234 36.6797 29.5312 37.5 27.1875 37.5ZM0 36.5625V21.5625H15V36.5625H0ZM27.1875 33.75C28.5 33.75 29.6094 33.2969 30.5156 32.3906C31.4219 31.4844 31.875 30.375 31.875 29.0625C31.875 27.75 31.4219 26.6406 30.5156 25.7344C29.6094 24.8281 28.5 24.375 27.1875 24.375C25.875 24.375 24.7656 24.8281 23.8594 25.7344C22.9531 26.6406 22.5 27.75 22.5 29.0625C22.5 30.375 22.9531 31.4844 23.8594 32.3906C24.7656 33.2969 25.875 33.75 27.1875 33.75ZM3.75 32.8125H11.25V25.3125H3.75V32.8125ZM13.2188 13.125H20.5312L16.875 7.21875L13.2188 13.125Z" fill="white"/>
</svg>
