<svg width="234" height="234" viewBox="0 0 234 234" fill="none" xmlns="http://www.w3.org/2000/svg">
<path id="Vector" d="M129.917 233.25V207.417H155.75V233.25H129.917ZM104.083 207.417V142.833H129.917V207.417H104.083ZM207.417 168.667V117H233.25V168.667H207.417ZM181.583 117V91.1667H207.417V117H181.583ZM26.5833 142.833V117H52.4167V142.833H26.5833ZM0.75 117V91.1667H26.5833V117H0.75ZM117 26.5833V0.75H142.833V26.5833H117ZM20.125 58.875H58.875V20.125H20.125V58.875ZM0.75 78.25V0.75H78.25V78.25H0.75ZM20.125 213.875H58.875V175.125H20.125V213.875ZM0.75 233.25V155.75H78.25V233.25H0.75ZM175.125 58.875H213.875V20.125H175.125V58.875ZM155.75 78.25V0.75H233.25V78.25H155.75ZM181.583 233.25V194.5H155.75V168.667H207.417V207.417H233.25V233.25H181.583ZM129.917 142.833V117H181.583V142.833H129.917ZM78.25 142.833V117H52.4167V91.1667H129.917V117H104.083V142.833H78.25ZM91.1667 78.25V26.5833H117V52.4167H142.833V78.25H91.1667ZM29.8125 49.1875V29.8125H49.1875V49.1875H29.8125ZM29.8125 204.188V184.812H49.1875V204.188H29.8125ZM184.812 49.1875V29.8125H204.188V49.1875H184.812Z" fill="#212121"/>
</svg>
