<svg width="35" height="36" viewBox="0 0 35 36" fill="none" xmlns="http://www.w3.org/2000/svg">
<path id="Vector" d="M10.5097 35.1796C9.54632 35.1796 8.7216 34.8362 8.03555 34.1493C7.3495 33.4623 7.00647 32.6366 7.00647 31.672C7.00647 30.7074 7.3495 29.8816 8.03555 29.1947C8.7216 28.5078 9.54632 28.1643 10.5097 28.1643C11.4731 28.1643 12.2978 28.5078 12.9839 29.1947C13.6699 29.8816 14.0129 30.7074 14.0129 31.672C14.0129 32.6366 13.6699 33.4623 12.9839 34.1493C12.2978 34.8362 11.4731 35.1796 10.5097 35.1796ZM28.0259 35.1796C27.0625 35.1796 26.2378 34.8362 25.5517 34.1493C24.8657 33.4623 24.5227 32.6366 24.5227 31.672C24.5227 30.7074 24.8657 29.8816 25.5517 29.1947C26.2378 28.5078 27.0625 28.1643 28.0259 28.1643C28.9893 28.1643 29.814 28.5078 30.5001 29.1947C31.1861 29.8816 31.5291 30.7074 31.5291 31.672C31.5291 32.6366 31.1861 33.4623 30.5001 34.1493C29.814 34.8362 28.9893 35.1796 28.0259 35.1796ZM9.02083 7.1183L13.2247 15.8875H25.486L30.303 7.1183H9.02083ZM7.3568 3.61063H33.1932C33.8646 3.61063 34.3755 3.91025 34.7258 4.50947C35.0762 5.1087 35.0908 5.71523 34.7696 6.32907L28.5514 17.5536C28.2302 18.1382 27.7996 18.5913 27.2596 18.9128C26.7195 19.2344 26.1283 19.3951 25.486 19.3951H12.4365L10.5097 22.9028H31.5291V26.4105H10.5097C9.196 26.4105 8.20341 25.8332 7.53196 24.6786C6.86051 23.5239 6.83131 22.3766 7.44438 21.2367L9.80906 16.9398L3.50324 3.61063H0V0.102966H5.69276L7.3568 3.61063Z" fill="white"/>
</svg>
